<svg width="174" height="41" viewBox="0 0 174 41" fill="none" xmlns="http://www.w3.org/2000/svg">
<path d="M55.8643 27.203H67.8163V23.603H60.1123V10.043H55.8643V27.203Z" fill="white"/>
<path d="M75.3684 24.8041C73.6644 24.8041 72.7764 23.3161 72.7764 21.0841C72.7764 18.8521 73.6644 17.3401 75.3684 17.3401C77.0724 17.3401 77.9844 18.8521 77.9844 21.0841C77.9844 23.3161 77.0724 24.8041 75.3684 24.8041ZM75.3924 27.5881C79.3524 27.5881 81.9444 24.7801 81.9444 21.0841C81.9444 17.3881 79.3524 14.5801 75.3924 14.5801C71.4564 14.5801 68.8164 17.3881 68.8164 21.0841C68.8164 24.7801 71.4564 27.5881 75.3924 27.5881Z" fill="white"/>
<path d="M89.2083 31.4507C91.0323 31.4507 92.6403 31.0427 93.7203 30.0827C94.7043 29.1947 95.3523 27.8507 95.3523 26.0027V14.9147H91.6083V16.2347H91.5603C90.8403 15.2027 89.7363 14.5547 88.1043 14.5547C85.0563 14.5547 82.9443 17.0987 82.9443 20.6987C82.9443 24.4667 85.5123 26.5307 88.2723 26.5307C89.7603 26.5307 90.6963 25.9307 91.4163 25.1147H91.5123V26.3387C91.5123 27.8267 90.8163 28.6907 89.1603 28.6907C87.8643 28.6907 87.2163 28.1387 87.0003 27.4907H83.2083C83.5923 30.0587 85.8243 31.4507 89.2083 31.4507ZM89.1843 23.6267C87.7203 23.6267 86.7603 22.4267 86.7603 20.5787C86.7603 18.7067 87.7203 17.5067 89.1843 17.5067C90.8163 17.5067 91.6803 18.8987 91.6803 20.5547C91.6803 22.2827 90.8883 23.6267 89.1843 23.6267Z" fill="white"/>
<path d="M102.905 24.8041C101.201 24.8041 100.313 23.3161 100.313 21.0841C100.313 18.8521 101.201 17.3401 102.905 17.3401C104.609 17.3401 105.521 18.8521 105.521 21.0841C105.521 23.3161 104.609 24.8041 102.905 24.8041ZM102.929 27.5881C106.889 27.5881 109.48 24.7801 109.48 21.0841C109.48 17.3881 106.889 14.5801 102.929 14.5801C98.9925 14.5801 96.3525 17.3881 96.3525 21.0841C96.3525 24.7801 98.9925 27.5881 102.929 27.5881Z" fill="white"/>
<path d="M110.48 27.203H114.392V14.915H110.48V27.203ZM110.48 13.211H114.392V10.043H110.48V13.211Z" fill="white"/>
<path d="M115.393 31.2587H119.305V25.9307H119.353C120.121 26.9627 121.249 27.5867 122.833 27.5867C126.049 27.5867 128.185 25.0427 128.185 21.0587C128.185 17.3627 126.193 14.5547 122.929 14.5547C121.249 14.5547 120.049 15.2987 119.209 16.4027H119.137V14.9147H115.393V31.2587ZM121.825 24.5627C120.145 24.5627 119.185 23.1947 119.185 21.2027C119.185 19.2107 120.049 17.6987 121.753 17.6987C123.433 17.6987 124.225 19.0907 124.225 21.2027C124.225 23.2907 123.313 24.5627 121.825 24.5627Z" fill="white"/>
<path d="M135.16 27.5867C138.376 27.5867 140.752 26.1947 140.752 23.5067C140.752 20.3627 138.208 19.8107 136.048 19.4507C134.488 19.1627 133.096 19.0427 133.096 18.1787C133.096 17.4107 133.84 17.0507 134.8 17.0507C135.88 17.0507 136.624 17.3867 136.768 18.4907H140.368C140.176 16.0667 138.304 14.5547 134.824 14.5547C131.92 14.5547 129.52 15.8987 129.52 18.4907C129.52 21.3707 131.8 21.9467 133.936 22.3067C135.568 22.5947 137.056 22.7147 137.056 23.8187C137.056 24.6107 136.312 25.0427 135.136 25.0427C133.84 25.0427 133.024 24.4427 132.88 23.2187H129.184C129.304 25.9307 131.56 27.5867 135.16 27.5867Z" fill="white"/>
<path d="M146.072 27.564C147.776 27.564 148.856 26.892 149.744 25.692H149.816V27.204H153.56V14.916H149.648V21.78C149.648 23.244 148.832 24.252 147.488 24.252C146.24 24.252 145.64 23.508 145.64 22.164V14.916H141.752V22.98C141.752 25.716 143.24 27.564 146.072 27.564Z" fill="white"/>
<path d="M154.561 27.2027H158.473V20.3147C158.473 18.8507 159.193 17.8187 160.417 17.8187C161.593 17.8187 162.145 18.5867 162.145 19.9067V27.2027H166.057V20.3147C166.057 18.8507 166.753 17.8187 168.001 17.8187C169.177 17.8187 169.729 18.5867 169.729 19.9067V27.2027H173.641V19.2107C173.641 16.4507 172.249 14.5547 169.465 14.5547C167.881 14.5547 166.561 15.2267 165.601 16.7147H165.553C164.929 15.3947 163.705 14.5547 162.097 14.5547C160.321 14.5547 159.145 15.3947 158.377 16.6667H158.305V14.9147H154.561V27.2027Z" fill="white"/>
<path d="M25.0925 1.80093L21.1595 0.74707L17.8451 13.1166L14.8528 1.94931L10.9197 3.00317L14.1527 15.0686L6.10008 7.01605L3.22089 9.89524L12.0536 18.728L1.05386 15.7806L0 19.7136L12.0186 22.934C11.881 22.3405 11.8082 21.7221 11.8082 21.0867C11.8082 16.5891 15.4542 12.9431 19.9518 12.9431C24.4494 12.9431 28.0954 16.5891 28.0954 21.0867C28.0954 21.718 28.0235 22.3326 27.8876 22.9226L38.8103 25.8493L39.8641 21.9163L27.7977 18.6831L38.7982 15.7355L37.7443 11.8025L25.6784 15.0355L33.731 6.98299L30.8518 4.1038L22.1416 12.814L25.0925 1.80093Z" fill="white"/>
<path d="M27.8765 22.9688C27.5393 24.3944 26.8274 25.6751 25.8506 26.7012L33.7636 34.6143L36.6428 31.7351L27.8765 22.9688Z" fill="white"/>
<path d="M25.7707 26.7842C24.7821 27.7939 23.5328 28.5474 22.1318 28.9357L25.0112 39.6817L28.9442 38.6278L25.7707 26.7842Z" fill="white"/>
<path d="M21.985 28.9745C21.335 29.1416 20.6537 29.2304 19.9516 29.2304C19.1994 29.2304 18.471 29.1284 17.7795 28.9375L14.8975 39.6933L18.8305 40.7471L21.985 28.9745Z" fill="white"/>
<path d="M17.6404 28.8981C16.2608 28.4905 15.0337 27.7274 14.0653 26.7148L6.13281 34.6473L9.012 37.5265L17.6404 28.8981Z" fill="white"/>
<path d="M13.9999 26.6442C13.0481 25.6252 12.3548 24.3616 12.0248 22.958L1.06641 25.8943L2.12026 29.8273L13.9999 26.6442Z" fill="white"/>
</svg>
