<svg width="175" height="41" viewBox="0 0 175 41" fill="none" xmlns="http://www.w3.org/2000/svg">
<path d="M56.8652 26.7596H68.8172V23.1596H61.1132V9.59961H56.8652V26.7596Z" fill="white"/>
<path d="M76.3694 24.3607C74.6654 24.3607 73.7774 22.8727 73.7774 20.6407C73.7774 18.4087 74.6654 16.8967 76.3694 16.8967C78.0734 16.8967 78.9854 18.4087 78.9854 20.6407C78.9854 22.8727 78.0734 24.3607 76.3694 24.3607ZM76.3934 27.1447C80.3534 27.1447 82.9454 24.3367 82.9454 20.6407C82.9454 16.9447 80.3534 14.1367 76.3934 14.1367C72.4574 14.1367 69.8174 16.9447 69.8174 20.6407C69.8174 24.3367 72.4574 27.1447 76.3934 27.1447Z" fill="white"/>
<path d="M90.2093 31.0073C92.0333 31.0073 93.6413 30.5993 94.7213 29.6393C95.7053 28.7513 96.3533 27.4073 96.3533 25.5593V14.4713H92.6093V15.7913H92.5613C91.8413 14.7593 90.7373 14.1113 89.1053 14.1113C86.0573 14.1113 83.9453 16.6553 83.9453 20.2553C83.9453 24.0233 86.5133 26.0873 89.2733 26.0873C90.7613 26.0873 91.6973 25.4873 92.4173 24.6713H92.5133V25.8953C92.5133 27.3833 91.8173 28.2473 90.1613 28.2473C88.8653 28.2473 88.2173 27.6953 88.0013 27.0473H84.2093C84.5933 29.6153 86.8253 31.0073 90.2093 31.0073ZM90.1853 23.1833C88.7213 23.1833 87.7613 21.9833 87.7613 20.1353C87.7613 18.2633 88.7213 17.0633 90.1853 17.0633C91.8173 17.0633 92.6813 18.4553 92.6813 20.1113C92.6813 21.8393 91.8893 23.1833 90.1853 23.1833Z" fill="white"/>
<path d="M103.906 24.3607C102.202 24.3607 101.314 22.8727 101.314 20.6407C101.314 18.4087 102.202 16.8967 103.906 16.8967C105.61 16.8967 106.522 18.4087 106.522 20.6407C106.522 22.8727 105.61 24.3607 103.906 24.3607ZM103.93 27.1447C107.89 27.1447 110.481 24.3367 110.481 20.6407C110.481 16.9447 107.89 14.1367 103.93 14.1367C99.9935 14.1367 97.3535 16.9447 97.3535 20.6407C97.3535 24.3367 99.9935 27.1447 103.93 27.1447Z" fill="white"/>
<path d="M111.48 26.7596H115.392V14.4716H111.48V26.7596ZM111.48 12.7676H115.392V9.59961H111.48V12.7676Z" fill="white"/>
<path d="M116.393 30.8153H120.305V25.4873H120.353C121.121 26.5193 122.249 27.1433 123.833 27.1433C127.049 27.1433 129.185 24.5993 129.185 20.6153C129.185 16.9193 127.193 14.1113 123.929 14.1113C122.249 14.1113 121.049 14.8553 120.209 15.9593H120.137V14.4713H116.393V30.8153ZM122.825 24.1193C121.145 24.1193 120.185 22.7513 120.185 20.7593C120.185 18.7673 121.049 17.2553 122.753 17.2553C124.433 17.2553 125.225 18.6473 125.225 20.7593C125.225 22.8473 124.313 24.1193 122.825 24.1193Z" fill="white"/>
<path d="M136.162 27.1433C139.378 27.1433 141.754 25.7513 141.754 23.0633C141.754 19.9193 139.21 19.3673 137.05 19.0073C135.49 18.7193 134.098 18.5993 134.098 17.7353C134.098 16.9673 134.842 16.6073 135.802 16.6073C136.882 16.6073 137.626 16.9433 137.77 18.0473H141.37C141.178 15.6233 139.306 14.1113 135.826 14.1113C132.922 14.1113 130.522 15.4553 130.522 18.0473C130.522 20.9273 132.802 21.5033 134.938 21.8633C136.57 22.1513 138.058 22.2713 138.058 23.3753C138.058 24.1673 137.314 24.5993 136.138 24.5993C134.842 24.5993 134.026 23.9993 133.882 22.7753H130.186C130.306 25.4873 132.562 27.1433 136.162 27.1433Z" fill="white"/>
<path d="M147.073 27.1207C148.777 27.1207 149.857 26.4487 150.745 25.2487H150.817V26.7607H154.561V14.4727H150.649V21.3367C150.649 22.8007 149.833 23.8087 148.489 23.8087C147.241 23.8087 146.641 23.0647 146.641 21.7207V14.4727H142.753V22.5367C142.753 25.2727 144.241 27.1207 147.073 27.1207Z" fill="white"/>
<path d="M155.561 26.7593H159.473V19.8713C159.473 18.4073 160.193 17.3753 161.417 17.3753C162.593 17.3753 163.145 18.1433 163.145 19.4633V26.7593H167.057V19.8713C167.057 18.4073 167.753 17.3753 169.001 17.3753C170.177 17.3753 170.729 18.1433 170.729 19.4633V26.7593H174.641V18.7673C174.641 16.0073 173.249 14.1113 170.465 14.1113C168.881 14.1113 167.561 14.7833 166.601 16.2713H166.553C165.929 14.9513 164.705 14.1113 163.097 14.1113C161.321 14.1113 160.145 14.9513 159.377 16.2233H159.305V14.4713H155.561V26.7593Z" fill="white"/>
<path fill-rule="evenodd" clip-rule="evenodd" d="M20.6406 40.3037C31.6863 40.3037 40.6406 31.3494 40.6406 20.3037C40.6406 9.25802 31.6863 0.303711 20.6406 0.303711C9.59491 0.303711 0.640625 9.25802 0.640625 20.3037C0.640625 31.3494 9.59491 40.3037 20.6406 40.3037ZM26.8799 9.62055C27.1836 8.54176 26.1367 7.90384 25.1806 8.58501L11.8337 18.0933C10.7968 18.832 10.9599 20.3037 12.0787 20.3037H15.5933V20.2765H22.4431L16.8618 22.2458L14.4013 30.9869C14.0976 32.0657 15.1444 32.7036 16.1006 32.0224L29.4475 22.5142C30.4844 21.7755 30.3212 20.3037 29.2025 20.3037H23.8727L26.8799 9.62055Z" fill="white"/>
</svg>
