<svg width="175" height="41" viewBox="0 0 175 41" fill="none" xmlns="http://www.w3.org/2000/svg">
<path fill-rule="evenodd" clip-rule="evenodd" d="M26.1963 12.4324C24.5518 11.3336 22.6184 10.7471 20.6406 10.7471V0.74707C24.5962 0.74707 28.463 1.92005 31.752 4.11768C35.041 6.3153 37.6044 9.43888 39.1182 13.0934C40.6319 16.7479 41.028 20.7693 40.2563 24.6489C39.4846 28.5285 37.5798 32.0922 34.7827 34.8892C31.9857 37.6863 28.422 39.5911 24.5424 40.3628C20.6628 41.1345 16.6414 40.7384 12.9869 39.2247C9.33243 37.7109 6.20885 35.1475 4.01123 31.8585C1.81361 28.5695 0.640625 24.7027 0.640625 20.7471H10.6406C10.6406 22.7249 11.2271 24.6583 12.3259 26.3028C13.4247 27.9473 14.9865 29.229 16.8138 29.9859C18.641 30.7428 20.6517 30.9408 22.5915 30.5549C24.5313 30.1691 26.3131 29.2167 27.7117 27.8182C29.1102 26.4196 30.0626 24.6378 30.4484 22.698C30.8343 20.7582 30.6363 18.7475 29.8794 16.9203C29.1225 15.093 27.8408 13.5312 26.1963 12.4324Z" fill="white"/>
<path fill-rule="evenodd" clip-rule="evenodd" d="M10.6406 0.747076C10.6406 2.06029 10.382 3.36065 9.87942 4.57391C9.37687 5.78716 8.64028 6.88955 7.71169 7.81814C6.78311 8.74673 5.68072 9.48332 4.46746 9.98587C3.2542 10.4884 1.95384 10.7471 0.640625 10.7471L0.640625 20.7471C3.26706 20.7471 5.86778 20.2298 8.2943 19.2247C10.7208 18.2196 12.9256 16.7464 14.7827 14.8892C16.6399 13.0321 18.1131 10.8273 19.1182 8.40074C20.1233 5.97422 20.6406 3.3735 20.6406 0.74707L10.6406 0.747076Z" fill="white"/>
<path d="M57.0889 27.203H69.0409V23.603H61.3369V10.043H57.0889V27.203Z" fill="white"/>
<path d="M76.593 24.8041C74.889 24.8041 74.001 23.3161 74.001 21.0841C74.001 18.8521 74.889 17.3401 76.593 17.3401C78.297 17.3401 79.209 18.8521 79.209 21.0841C79.209 23.3161 78.297 24.8041 76.593 24.8041ZM76.617 27.5881C80.577 27.5881 83.169 24.7801 83.169 21.0841C83.169 17.3881 80.577 14.5801 76.617 14.5801C72.681 14.5801 70.041 17.3881 70.041 21.0841C70.041 24.7801 72.681 27.5881 76.617 27.5881Z" fill="white"/>
<path d="M90.4329 31.4507C92.2569 31.4507 93.8649 31.0427 94.9449 30.0827C95.9289 29.1947 96.577 27.8507 96.577 26.0027V14.9147H92.8329V16.2347H92.785C92.0649 15.2027 90.9609 14.5547 89.3289 14.5547C86.2809 14.5547 84.1689 17.0987 84.1689 20.6987C84.1689 24.4667 86.7369 26.5307 89.4969 26.5307C90.9849 26.5307 91.9209 25.9307 92.6409 25.1147H92.7369V26.3387C92.7369 27.8267 92.0409 28.6907 90.3849 28.6907C89.0889 28.6907 88.4409 28.1387 88.2249 27.4907H84.4329C84.8169 30.0587 87.0489 31.4507 90.4329 31.4507ZM90.409 23.6267C88.945 23.6267 87.9849 22.4267 87.9849 20.5787C87.9849 18.7067 88.945 17.5067 90.409 17.5067C92.041 17.5067 92.9049 18.8987 92.9049 20.5547C92.9049 22.2827 92.113 23.6267 90.409 23.6267Z" fill="white"/>
<path d="M104.129 24.8041C102.425 24.8041 101.537 23.3161 101.537 21.0841C101.537 18.8521 102.425 17.3401 104.129 17.3401C105.833 17.3401 106.745 18.8521 106.745 21.0841C106.745 23.3161 105.833 24.8041 104.129 24.8041ZM104.153 27.5881C108.113 27.5881 110.705 24.7801 110.705 21.0841C110.705 17.3881 108.113 14.5801 104.153 14.5801C100.217 14.5801 97.5771 17.3881 97.5771 21.0841C97.5771 24.7801 100.217 27.5881 104.153 27.5881Z" fill="white"/>
<path d="M111.705 27.203H115.617V14.915H111.705V27.203ZM111.705 13.211H115.617V10.043H111.705V13.211Z" fill="white"/>
<path d="M116.617 31.2587H120.529V25.9307H120.577C121.345 26.9627 122.473 27.5867 124.057 27.5867C127.273 27.5867 129.409 25.0427 129.409 21.0587C129.409 17.3627 127.417 14.5547 124.153 14.5547C122.473 14.5547 121.273 15.2987 120.433 16.4027H120.361V14.9147H116.617V31.2587ZM123.049 24.5627C121.369 24.5627 120.409 23.1947 120.409 21.2027C120.409 19.2107 121.273 17.6987 122.977 17.6987C124.657 17.6987 125.449 19.0907 125.449 21.2027C125.449 23.2907 124.537 24.5627 123.049 24.5627Z" fill="white"/>
<path d="M136.384 27.5867C139.6 27.5867 141.976 26.1947 141.976 23.5067C141.976 20.3627 139.432 19.8107 137.272 19.4507C135.712 19.1627 134.32 19.0427 134.32 18.1787C134.32 17.4107 135.064 17.0507 136.024 17.0507C137.104 17.0507 137.848 17.3867 137.992 18.4907H141.592C141.4 16.0667 139.528 14.5547 136.048 14.5547C133.144 14.5547 130.744 15.8987 130.744 18.4907C130.744 21.3707 133.024 21.9467 135.16 22.3067C136.792 22.5947 138.28 22.7147 138.28 23.8187C138.28 24.6107 137.536 25.0427 136.36 25.0427C135.064 25.0427 134.248 24.4427 134.104 23.2187H130.408C130.528 25.9307 132.784 27.5867 136.384 27.5867Z" fill="white"/>
<path d="M147.297 27.564C149.001 27.564 150.081 26.892 150.969 25.692H151.041V27.204H154.785V14.916H150.873V21.78C150.873 23.244 150.057 24.252 148.713 24.252C147.465 24.252 146.865 23.508 146.865 22.164V14.916H142.977V22.98C142.977 25.716 144.465 27.564 147.297 27.564Z" fill="white"/>
<path d="M155.785 27.2027H159.697V20.3147C159.697 18.8507 160.417 17.8187 161.641 17.8187C162.817 17.8187 163.369 18.5867 163.369 19.9067V27.2027H167.281V20.3147C167.281 18.8507 167.977 17.8187 169.225 17.8187C170.401 17.8187 170.953 18.5867 170.953 19.9067V27.2027H174.865V19.2107C174.865 16.4507 173.473 14.5547 170.689 14.5547C169.105 14.5547 167.785 15.2267 166.825 16.7147H166.777C166.153 15.3947 164.929 14.5547 163.321 14.5547C161.545 14.5547 160.369 15.3947 159.601 16.6667H159.529V14.9147H155.785V27.2027Z" fill="white"/>
</svg>
