<svg width="177" height="51" viewBox="0 0 177 51" fill="none" xmlns="http://www.w3.org/2000/svg">
<path d="M87.5843 34.6682H84.1923C82.507 34.6682 81.2057 34.2202 80.2883 33.3242C79.371 32.4282 78.9123 31.1375 78.9123 29.4522V19.3082C78.9123 17.6228 79.371 16.3322 80.2883 15.4362C81.2057 14.5402 82.507 14.0922 84.1923 14.0922H87.5843C89.2483 14.0922 90.539 14.5508 91.4563 15.4682C92.3737 16.3642 92.8323 17.6442 92.8323 19.3082V20.2682C92.8323 20.7375 92.6083 20.9722 92.1603 20.9722H89.4403C88.9923 20.9722 88.7683 20.7375 88.7683 20.2682V19.5002C88.7683 18.8175 88.6297 18.3375 88.3523 18.0602C88.075 17.7615 87.595 17.6122 86.9123 17.6122H84.8323C84.171 17.6122 83.691 17.7615 83.3923 18.0602C83.115 18.3375 82.9763 18.8175 82.9763 19.5002V29.2602C82.9763 29.9428 83.115 30.4335 83.3923 30.7322C83.691 31.0095 84.171 31.1482 84.8323 31.1482H86.9123C87.595 31.1482 88.075 31.0095 88.3523 30.7322C88.6297 30.4335 88.7683 29.9428 88.7683 29.2602V27.2442C88.7683 27.0095 88.651 26.8922 88.4163 26.8922H86.4963C86.0483 26.8922 85.8243 26.6682 85.8243 26.2202V24.0442C85.8243 23.5962 86.0483 23.3722 86.4963 23.3722H92.0963C92.587 23.3722 92.8323 23.6175 92.8323 24.1082V29.4522C92.8323 31.1162 92.3737 32.4068 91.4563 33.3242C90.539 34.2202 89.2483 34.6682 87.5843 34.6682ZM99.7418 34.6682H97.0218C96.5738 34.6682 96.3498 34.4442 96.3498 33.9962V19.0202C96.3498 18.5722 96.5738 18.3482 97.0218 18.3482H99.7418C100.19 18.3482 100.414 18.5722 100.414 19.0202V20.1082H100.542C100.777 19.5322 101.193 19.0948 101.79 18.7962C102.387 18.4975 103.017 18.3482 103.678 18.3482H104.83C105.257 18.3482 105.47 18.5722 105.47 19.0202V21.2282C105.47 21.4842 105.417 21.6655 105.31 21.7722C105.225 21.8575 105.065 21.8895 104.83 21.8682H102.622C101.15 21.8682 100.414 22.7002 100.414 24.3642V33.9962C100.414 34.4442 100.19 34.6682 99.7418 34.6682ZM119.538 34.6682H112.466C110.781 34.6682 109.479 34.2202 108.562 33.3242C107.645 32.4282 107.186 31.1375 107.186 29.4522V23.5642C107.186 21.8788 107.645 20.5882 108.562 19.6922C109.479 18.7962 110.781 18.3482 112.466 18.3482H114.994C116.679 18.3482 117.981 18.7962 118.898 19.6922C119.815 20.5882 120.274 21.8788 120.274 23.5642V27.6282C120.274 28.0762 120.05 28.3002 119.602 28.3002H111.57C111.314 28.3002 111.186 28.4175 111.186 28.6522V29.3562C111.186 30.0175 111.325 30.4975 111.602 30.7962C111.901 31.0735 112.391 31.2122 113.074 31.2122H119.538C119.986 31.2122 120.21 31.4468 120.21 31.9162V34.0282C120.21 34.2628 120.157 34.4335 120.05 34.5402C119.965 34.6255 119.794 34.6682 119.538 34.6682ZM111.57 25.5802H115.922C116.157 25.5802 116.274 25.4628 116.274 25.2282V23.6922C116.274 23.0095 116.135 22.5295 115.858 22.2522C115.581 21.9748 115.101 21.8362 114.418 21.8362H113.074C112.391 21.8362 111.911 21.9748 111.634 22.2522C111.357 22.5295 111.218 23.0095 111.218 23.6922V25.2282C111.218 25.4628 111.335 25.5802 111.57 25.5802ZM135.351 34.6682H128.279C126.593 34.6682 125.292 34.2202 124.375 33.3242C123.457 32.4282 122.999 31.1375 122.999 29.4522V23.5642C122.999 21.8788 123.457 20.5882 124.375 19.6922C125.292 18.7962 126.593 18.3482 128.279 18.3482H130.807C132.492 18.3482 133.793 18.7962 134.711 19.6922C135.628 20.5882 136.087 21.8788 136.087 23.5642V27.6282C136.087 28.0762 135.863 28.3002 135.415 28.3002H127.383C127.127 28.3002 126.999 28.4175 126.999 28.6522V29.3562C126.999 30.0175 127.137 30.4975 127.415 30.7962C127.713 31.0735 128.204 31.2122 128.887 31.2122H135.351C135.799 31.2122 136.023 31.4468 136.023 31.9162V34.0282C136.023 34.2628 135.969 34.4335 135.863 34.5402C135.777 34.6255 135.607 34.6682 135.351 34.6682ZM127.383 25.5802H131.735C131.969 25.5802 132.087 25.4628 132.087 25.2282V23.6922C132.087 23.0095 131.948 22.5295 131.671 22.2522C131.393 21.9748 130.913 21.8362 130.231 21.8362H128.887C128.204 21.8362 127.724 21.9748 127.447 22.2522C127.169 22.5295 127.031 23.0095 127.031 23.6922V25.2282C127.031 25.4628 127.148 25.5802 127.383 25.5802ZM142.523 34.6682H139.803C139.355 34.6682 139.131 34.4442 139.131 33.9962V19.0202C139.131 18.5722 139.355 18.3482 139.803 18.3482H142.523C142.971 18.3482 143.195 18.5722 143.195 19.0202V20.0762H143.323C143.792 18.9242 144.838 18.3482 146.459 18.3482H147.483C150.832 18.3482 152.507 20.0868 152.507 23.5642V33.9962C152.507 34.4442 152.272 34.6682 151.803 34.6682H149.115C148.667 34.6682 148.443 34.4442 148.443 33.9962V23.7562C148.443 23.0735 148.294 22.5935 147.995 22.3162C147.718 22.0175 147.238 21.8682 146.555 21.8682H145.403C143.931 21.8682 143.195 22.6788 143.195 24.3002V33.9962C143.195 34.4442 142.971 34.6682 142.523 34.6682ZM158.505 34.6682H155.273C154.718 34.6682 154.569 34.4442 154.825 33.9962L158.857 26.3482L154.825 19.0202C154.612 18.5722 154.74 18.3482 155.209 18.3482H158.473C158.985 18.3482 159.316 18.5722 159.465 19.0202L161.481 23.8842H161.609L163.369 19.0202C163.518 18.5722 163.849 18.3482 164.361 18.3482H167.561C168.116 18.3482 168.254 18.5722 167.977 19.0202L164.137 26.3482L168.265 33.9962C168.372 34.1882 168.382 34.3482 168.297 34.4762C168.233 34.6042 168.094 34.6682 167.881 34.6682H164.585C164.137 34.6682 163.817 34.4442 163.625 33.9962L161.609 29.1002H161.481L159.465 33.9962C159.316 34.4442 158.996 34.6682 158.505 34.6682Z" fill="white"/>
<path d="M174.214 30.0602V33.9962C174.214 34.4442 174.012 34.6682 173.606 34.6682H170.758C170.332 34.6682 170.118 34.4442 170.118 33.9962V30.0922C170.118 29.6655 170.332 29.4522 170.758 29.4522H173.606C174.012 29.4522 174.214 29.6548 174.214 30.0602Z" fill="#8EC73D"/>
<path fill-rule="evenodd" clip-rule="evenodd" d="M13.2811 36.6642C11.6525 33.3457 10.7376 29.6142 10.7376 25.6681C10.7376 11.8612 21.9306 0.668152 35.7376 0.668152C42.4617 0.668152 48.5654 3.3232 53.0581 7.64157C39.6548 10.3876 31.3477 17.3554 26.2317 26.9008L26.232 26.9024C34.2336 18.6667 44.0544 10.1304 61.1523 9.20732C56.1536 40.1002 24.5252 48.811 0 37.527C15.9364 40.8549 35.7574 39.9695 52.646 20.3069C42.0442 29.3755 26.7618 36.2119 13.2811 36.6642Z" fill="#8EC73D"/>
<path fill-rule="evenodd" clip-rule="evenodd" d="M35.7362 50.6681C29.0463 50.6681 22.9699 48.0403 18.4834 43.7605C27.2679 44.2689 36.1418 42.5279 43.809 38.0796C51.437 33.6543 56.7914 27.1708 59.9524 19.4377C60.464 21.4294 60.7362 23.5168 60.7362 25.6681C60.7362 39.4751 49.5432 50.6681 35.7362 50.6681Z" fill="white"/>
</svg>
